<svg version="1" xmlns="http://www.w3.org/2000/svg" width="853.333" height="853.333" viewBox="0 0 640.000000 640.000000"><path d="M159.8 209.6L33 273v93.5l58 28.9c31.9 15.9 58 29.4 58 29.8 0 .5.5.6 1 .3.6-.4 2.3.1 3.8 1.1s2.9 1.9 3.2 1.9c1.7.2 8 3.9 8 4.7 0 .5.4.7.8.4.7-.4 32.7 15 37.4 18.1.7.4 1.5.8 1.8.9.8.1 5.4 2.3 7 3.3.8.6 12.6 6.5 26.3 13.2 13.6 6.7 24.7 12.6 24.7 13.1s.5.6 1.1.3c.5-.4 1.8 0 2.7.8.9.9 1.9 1.6 2.2 1.6.7 0 5.1 1.9 7 3 7.3 4.3 12.8 6.3 11.5 4.2-.3-.5-.1-1.2.5-1.6.6-.4.7-1.2.3-1.8-1-1.7-1.1-8.7-.1-9.3.5-.3.5-1.1.1-1.7-1-1.6-1.1-7.8-.2-9.8.5-.9.5-1.9.2-2.3-1.1-1.1-.9-11.6.2-11.6.7 0 .7-.3 0-.8-1.2-.8-1.3-3.2-.2-4.9.4-.6.4-1.4-.1-1.7-.7-.4-.9-7.6-.2-8.4.7-.6.5-2.8-.2-3.9-.5-.6-.5-1.4.2-1.8.6-.3.7-1.2.3-1.8-1.1-1.8-1-5.1.2-5.9.6-.5.5-.8-.4-.8s-1-.4-.4-1.2c.8-1.2.9-2.5.3-4.6-.6-1.8-.4-4.8.2-6.4.5-.9.4-1.9 0-2.2-1.1-.7-.9-4.6.2-6.5.5-.8.4-1.6-.4-2.1-.6-.4-1.1-1-1-1.4.4-1.6-1.4-2.7-16.5-10-8.8-4.2-16.7-8.1-17.5-8.7-.8-.5-2.2-1.2-3-1.5-4.2-1.7-12.6-6-13.1-6.7-.3-.5-.9-.8-1.3-.6-1.6.5-25.5-11.7-25.1-12.8.2-.7-.2-1-.9-.7-1.5.6-29.9-13-29-13.8.3-.3-.1-.5-.8-.5-2.1.2-11.8-4.5-11.2-5.4.3-.5-.1-.6-.9-.3s-1.8 0-2.2-.5c-.3-.6-1-.9-1.5-.6-.5.3-1.1.1-1.5-.5-.5-.7-7.9-4.7-10.5-5.5-2.1-.7-6.8-3.1-8.2-4.3-1-.9-1.8-1.2-1.8-.8 0 .3-3.2-1-7.2-3.1l-7.1-3.7 29.4-14.4c59.3-29.1 82.9-40.7 105.9-51.9 12.9-6.3 23.7-11.7 24-12 .6-.6.7-95.3 0-95.2-.3 0-57.5 28.6-127.2 63.5zM353 193.9c0 38.8.3 48.1 1.3 48.1.7 0 1.8.5 2.5 1.2.6.6 1.7 1.3 2.4 1.4 2.6.4 6.7 3.1 6 3.9-.4.5-.2.5.4.2.6-.4 6 1.8 12 4.8s11.5 5.5 12.2 5.5c.6 0 1.2.4 1.2 1 0 .5 1.8 1.5 4 2.1 2.2.7 4 1.6 4 2.1 0 .4.9.8 2 .8s2 .4 2 1c0 .5.3.9.8.8 1.5-.4 23.1 10.6 22.5 11.5-.3.6-.1.7.5.3 1.1-.7 13.2 4.9 14.3 6.6.3.5.9.9 1.3.7 1.5-.4 12.5 5.5 11.9 6.4-.3.6-.1.7.6.3.6-.4 12 4.7 25.9 11.5 13.6 6.8 25 12.2 25.5 12.1.4-.1.7.3.7.9 0 .5.3.8.8.5.4-.2 1.6.2 2.6 1 1.8 1.2-1 2.8-31.5 17.7-71.8 35.3-80.1 39.3-102.6 50.3L353 397.9v47.6c0 26.1.2 47.5.5 47.5s57.6-28.6 127.4-63.5l126.9-63.4-.2-5.6c0-3 .1-5.5.4-5.5.3 0 .4-2.4.2-5.2-.1-2.9-.3-21.4-.4-41l-.1-35.7-126.5-63.3c-69.5-34.8-126.8-63.5-127.3-63.6-.5-.2-.9 20.7-.9 47.7z"/><path d="M307.5 252.5c-52.4 11-71.4 74.7-33.5 112.5 12.4 12.5 28.3 19 46.1 19.1 6.8 0 17.9-1.6 20.8-3.1.9-.4 3.6-1.6 6.1-2.6 13.2-5.2 25.8-17.3 32.4-30.8 5.7-11.6 7.5-19.9 7.1-32.4-.5-17.6-6.7-31.6-20-44.7-9.6-9.6-20.2-15.2-33.5-18.1-6-1.2-19.2-1.2-25.5.1zm18.4 15c2.3 2.3 2 9.1-.5 11.5-5 5-14.4 1.5-14.4-5.4 0-3.7 2.3-7.4 5.3-8.5 2.6-1 7.5.3 9.6 2.4zm-29.4 17.2c16.8 1.4 48.5.8 58.2-1.1 1.2-.3 3.2.3 4.5 1.3 1.9 1.6 2.1 2.2 1.1 4.4-1 2.1-2.1 2.7-7 3.3-3.2.4-6 .9-6.3.9-.3.1-4 .5-8.2.9l-7.8.8v12.9c0 13.8-.3 12.2 8.9 42.7 2.2 7.3 3.8 13.9 3.5 14.6-.3.7-1.6 1.8-2.9 2.4-4.2 1.9-5.6-.5-12.6-21-5.4-16-6.9-19.4-8.6-19.6-1.5-.2-2.2.4-2.6 2-2 8.9-11.2 36.6-12.7 38.2-2.1 2.2-5.5 1.5-7-1.5-.8-1.5-.4-4.6 1.9-13.2 1.6-6.1 4.1-15.5 5.5-20.9 2.2-8 2.6-11.8 2.6-23.2 0-13.4 0-13.6-2.2-13.7-6.9-.2-21.9-2.8-23.4-4-2.3-1.9-1.3-6.2 1.6-7 1.4-.3 2.7-.5 3-.3.3.1 5 .6 10.5 1.1z"/></svg>