<svg xmlns="http://www.w3.org/2000/svg" width="90" height="90" viewBox="0 0 90 90"><g transform="translate(45) rotate(45)"><g transform="translate(0 0)"><path d="M31.82,0A31.82,31.82,0,1,1,0,31.82,31.82,31.82,0,0,1,31.82,0Z" fill="#ffd8b9"/><path d="M210.021,203.194l-25.7-6.2,19.5-19.5Z" transform="translate(-151.276 -145.673)" fill="#f4f1ec"/></g><path d="M204.417,198.816a1.24,1.24,0,0,1-.287-.034l-25.7-6.2a1.223,1.223,0,0,1-.579-2.055l19.5-19.5a1.224,1.224,0,0,1,2.054.578l6.2,25.7a1.223,1.223,0,0,1-1.189,1.511Zm-23.293-8.1,21.632,5.222L197.535,174.3Z" transform="translate(-145.672 -140.072)" fill="#573e48"/><path d="M40.96,34.133l6.2,25.7,19.5-19.5Z" transform="translate(-33.617 -28.014)" fill="#ff5029"/><path d="M41.562,55.455a1.225,1.225,0,0,1-1.189-.936l-6.2-25.7a1.224,1.224,0,0,1,1.476-1.478l25.7,6.2a1.223,1.223,0,0,1,.579,2.055l-19.5,19.5A1.223,1.223,0,0,1,41.562,55.455ZM37.018,30.19,42.24,51.823,58.65,35.411Z" transform="translate(-28.015 -22.411)" fill="#573e48"/><circle cx="4.895" cy="4.895" r="4.895" transform="translate(26.925 26.922)" fill="#ff5029"/><path d="M149.495,155.608a6.118,6.118,0,1,1,4.326-10.443h0a6.116,6.116,0,0,1-4.326,10.443Zm0-9.785a3.67,3.67,0,1,0,2.6,1.073A3.66,3.66,0,0,0,149.495,145.823Z" transform="translate(-117.675 -117.672)" fill="#573e48"/></g></svg>