<svg xmlns="http://www.w3.org/2000/svg" width="90" height="90"><g transform="rotate(45 22.5 54.32)"><path d="M31.82 0A31.82 31.82 0 110 31.82 31.82 31.82 0 0131.82 0z" fill="#ffd8b9"/><path d="M58.745 57.521l-25.7-6.2 19.5-19.5z" fill="#f4f1ec"/><path d="M58.745 58.744a1.24 1.24 0 01-.287-.034l-25.7-6.2a1.223 1.223 0 01-.579-2.055l19.5-19.5a1.224 1.224 0 012.054.578l6.2 25.7a1.223 1.223 0 01-1.189 1.511zm-23.293-8.1l21.632 5.222-5.221-21.638z" fill="#573e48"/><path d="M7.343 6.119l6.2 25.7 19.5-19.5z" fill="#ff5029"/><path d="M13.547 33.044a1.225 1.225 0 01-1.189-.936l-6.2-25.7A1.224 1.224 0 017.634 4.93l25.7 6.2a1.223 1.223 0 01.579 2.055l-19.5 19.5a1.223 1.223 0 01-.866.359zM9.003 7.779l5.222 21.633L30.635 13z" fill="#573e48"/><circle cx="4.895" cy="4.895" r="4.895" transform="translate(26.925 26.922)" fill="#ff5029"/><path d="M31.82 37.936a6.118 6.118 0 114.326-10.443 6.116 6.116 0 01-4.326 10.443zm0-9.785a3.67 3.67 0 102.6 1.073 3.66 3.66 0 00-2.6-1.073z" fill="#573e48"/></g></svg>