<svg xmlns="http://www.w3.org/2000/svg" width="100.638" height="72.438" viewBox="0 0 100.638 72.438"><path d="M590.348,3725.423s14.018,3.281,27.44-2.982,25.054-18.791,25.054-18.791a107.221,107.221,0,0,0-10.737-10.737,62.61,62.61,0,0,0-10.737-7.158s4.176,9.47-3.579,19.386S590.348,3725.423,590.348,3725.423Z" transform="translate(-542.203 -3666.497)" fill="#ffb7a8"/><circle cx="7.679" cy="7.679" r="7.679" transform="translate(41.064 28.539)" fill="#ffb7a8"/><g transform="translate(0 0)"><path d="M82.789,65.768,68.264,80.293c-6.024-2.776-12.74-4.8-19.52-4.8-12.567,0-24.907,6.942-33.045,12.765A105.714,105.714,0,0,0,.966,100.942L0,101.987l.96,1.044a105.714,105.714,0,0,0,14.732,12.684A87.934,87.934,0,0,0,26.3,122.254L12.525,136.033l2.173,2.173L84.963,67.941ZM39.317,109.242A11.893,11.893,0,0,1,56,92.561ZM58.185,90.374a14.974,14.974,0,0,0-21.054,21.054l-8.545,8.543a83.542,83.542,0,0,1-11.052-6.719,108.592,108.592,0,0,1-13.3-11.265,108.6,108.6,0,0,1,13.3-11.265C25.3,85.175,37.01,78.565,48.744,78.565a43.371,43.371,0,0,1,17.2,4.047Z" transform="translate(0 -65.768)" fill="#573e48"/><path d="M238.642,250.514a11.956,11.956,0,0,1-1.49-.1l-2.6,2.592a14.961,14.961,0,0,0,18.488-18.488l-2.6,2.6a11.887,11.887,0,0,1-11.807,13.393Z" transform="translate(-189.899 -202.392)" fill="#573e48"/><path d="M245.481,181.3a105.71,105.71,0,0,0-14.732-12.684c-1.641-1.173-3.456-2.394-5.406-3.594l-2.235,2.235c2.112,1.271,4.057,2.573,5.805,3.822a108.6,108.6,0,0,1,13.3,11.265,108.594,108.594,0,0,1-13.3,11.265c-7.762,5.546-19.476,12.156-31.21,12.156a38.5,38.5,0,0,1-11.277-1.828l-2.436,2.436a42.67,42.67,0,0,0,13.713,2.463c12.567,0,24.907-6.942,33.045-12.765a105.714,105.714,0,0,0,14.732-12.684l.96-1.045Z" transform="translate(-148.96 -146.122)" fill="#573e48"/></g></svg>