<svg xmlns="http://www.w3.org/2000/svg" width="68.11" height="90"><path d="M63.016 37.429a4 4 0 010 6.688L12.195 77.48a4 4 0 01-6.2-3.344V7.411a4 4 0 016.2-3.344z" fill="#d84848"/><path d="M0 85.99V14.241a4 4 0 016.191-3.346L61 46.769a3.989 3.989 0 011.806 3.347A3.987 3.987 0 0161 53.462L6.191 89.337A4 4 0 010 85.99zm58.719-35.874a3.475 3.475 0 00-1.827-2.789L6.437 14.302a2.625 2.625 0 00-2.669-.432c-.83.449-1.288 1.592-1.288 3.22v66.052c0 1.628.457 2.772 1.288 3.22a2.626 2.626 0 002.67-.431l50.454-33.027a3.475 3.475 0 001.827-2.788z" fill="currentColor"/></svg>