<svg xmlns="http://www.w3.org/2000/svg" width="75.568" height="75.568" viewBox="0 0 75.568 75.568"><path d="M108.454,78.227A30.227,30.227,0,1,1,78.227,48,30.227,30.227,0,0,1,108.454,78.227Zm0,0" transform="translate(-40.443 -40.443)" fill="#ffd8b9"/><path d="M262.3,272Zm6.3,6.3" transform="translate(-215.697 -229.178)" fill="#f4f1ec"/><path d="M37.784,0A37.784,37.784,0,1,0,75.568,37.784,37.784,37.784,0,0,0,37.784,0Zm0,73.049A35.265,35.265,0,1,1,73.049,37.784,35.265,35.265,0,0,1,37.784,73.049Zm0,0"/><path d="M184.746,233.259a1.259,1.259,0,1,0-2.519,0,8.827,8.827,0,0,1-2.291,5.92,7.539,7.539,0,0,0-12.382,2.9H155.613l3.732-5.6a1.26,1.26,0,1,0-2.1-1.4l-5.038,7.557a1.25,1.25,0,0,0-.064.137,1.3,1.3,0,0,0-.06.125,1.121,1.121,0,0,0,0,.868,1.3,1.3,0,0,0,.06.126,1.188,1.188,0,0,0,.064.136l5.038,7.557a1.26,1.26,0,1,0,2.1-1.4l-3.73-5.592h11.5a7.557,7.557,0,1,0,14.32-3.349,11.336,11.336,0,0,0,3.312-7.986ZM174.67,249.632a5.038,5.038,0,1,1,5.038-5.038A5.038,5.038,0,0,1,174.67,249.632Zm0,0" transform="translate(-128.07 -195.476)"/><path d="M131.335,130.115h17.8l-3.732,5.6a1.26,1.26,0,1,0,2.1,1.4l5.038-7.557a1.251,1.251,0,0,0,.064-.137,1.168,1.168,0,0,0,.06-.125,1.118,1.118,0,0,0,0-.867,1.074,1.074,0,0,0-.06-.126,1.191,1.191,0,0,0-.064-.136l-5.038-7.557a1.26,1.26,0,1,0-2.1,1.4l3.73,5.591h-17.8A11.348,11.348,0,0,0,120,138.932a1.259,1.259,0,1,0,2.519,0A8.826,8.826,0,0,1,131.335,130.115Zm0,0" transform="translate(-101.108 -101.148)"/><path d="M289.259,296A1.26,1.26,0,0,0,288,297.259v2.519a1.259,1.259,0,0,0,2.519,0v-2.519A1.26,1.26,0,0,0,289.259,296Zm0,0" transform="translate(-242.659 -249.4)"/></svg>