<svg xmlns="http://www.w3.org/2000/svg" width="74.442" height="74.442"><g transform="translate(-926.308 -3960.308)"><circle cx="18" cy="18" r="18" transform="translate(939 3974)" fill="#ffd8b9"/><g fill="#573e48"><path d="M999.575 3988.892l-6.809-1.7a31.5 31.5 0 00-1.258-3.012l3.618-6.031a1.551 1.551 0 00-.233-1.895l-10.085-10.089a1.551 1.551 0 00-1.9-.234l-6.032 3.62a31.231 31.231 0 00-3.006-1.259l-1.7-6.809a1.55 1.55 0 00-1.507-1.175h-14.267a1.55 1.55 0 00-1.5 1.175l-1.7 6.809a31.306 31.306 0 00-3.006 1.259l-6.032-3.62a1.553 1.553 0 00-1.895.233l-10.097 10.09a1.551 1.551 0 00-.233 1.895l3.618 6.031a31.413 31.413 0 00-1.258 3.008l-6.809 1.7a1.55 1.55 0 00-1.176 1.508v14.267a1.55 1.55 0 001.175 1.5l6.809 1.7a31.5 31.5 0 001.259 3.015l-3.618 6.03a1.551 1.551 0 00.233 1.9l10.088 10.084a1.556 1.556 0 001.895.233l6.031-3.617a31.416 31.416 0 003.008 1.259l1.7 6.809a1.55 1.55 0 001.5 1.175h14.274a1.55 1.55 0 001.5-1.175l1.7-6.809a31.5 31.5 0 003.016-1.259l6.03 3.617a1.551 1.551 0 001.895-.233l10.089-10.084a1.551 1.551 0 00.233-1.895l-3.617-6.035a31.414 31.414 0 001.259-3.008l6.809-1.7a1.55 1.55 0 001.175-1.5v-14.274a1.55 1.55 0 00-1.176-1.504zm-1.927 14.56l-6.455 1.614a1.547 1.547 0 00-1.1 1.027 28.013 28.013 0 01-1.733 4.147 1.548 1.548 0 00.05 1.505l3.432 5.72-8.377 8.377-5.718-3.434a1.56 1.56 0 00-1.505-.05 28.094 28.094 0 01-4.148 1.733 1.547 1.547 0 00-1.027 1.1l-1.614 6.455h-11.845l-1.614-6.455a1.547 1.547 0 00-1.027-1.1 28.093 28.093 0 01-4.148-1.733 1.544 1.544 0 00-1.511.05l-5.719 3.432-8.374-8.374 3.432-5.72a1.549 1.549 0 00.05-1.505 28.013 28.013 0 01-1.733-4.147 1.547 1.547 0 00-1.1-1.027l-6.456-1.615v-11.844l6.455-1.614a1.547 1.547 0 001.1-1.027 28.013 28.013 0 011.733-4.147 1.548 1.548 0 00-.049-1.512l-3.432-5.72 8.377-8.378 5.716 3.437a1.537 1.537 0 001.505.05 28.013 28.013 0 014.147-1.733 1.547 1.547 0 001.027-1.1l1.621-6.456h11.844l1.614 6.455a1.547 1.547 0 001.027 1.1 28.013 28.013 0 014.147 1.733 1.552 1.552 0 001.505-.05l5.72-3.433 8.377 8.378-3.434 5.717a1.549 1.549 0 00-.05 1.505 28.013 28.013 0 011.733 4.147 1.547 1.547 0 001.1 1.027l6.458 1.621v11.844z"/><path d="M963.53 3978.919a18.611 18.611 0 1018.611 18.611 18.631 18.631 0 00-18.611-18.611zm0 34.119a15.509 15.509 0 1115.509-15.509 15.527 15.527 0 01-15.509 15.509z"/></g></g></svg>