<svg xmlns="http://www.w3.org/2000/svg" width="62.451" height="87"><path fill="#f2c549" d="M33.451 69h29v18h-29zm0-31h29v18h-29zm0-30h29v18h-29z"/><path d="M53.451 52h-31V30h31v22zm-29-20v18h27V32zm29-10h-31V0h31v22zm-29-20v18h27V2zm29 80h-31V60h31v22zm-29-20v18h27V62z" fill="currentColor"/><path d="M15.217 41H1v29.927l14.669.448" fill="none" stroke="currentColor" stroke-width="2"/><g fill="currentColor"><path d="M10.745 78.823L9.381 77.36l7.148-7.157 1.344 1.406z"/><g transform="rotate(-44.03 86.113 21.109)" stroke="currentColor" stroke-linecap="round" stroke-width="2"><path d="M0 0h2v10H0z" stroke="none"/><rect x="1" y="1" height="8" fill="none"/></g></g></svg>