<svg xmlns="http://www.w3.org/2000/svg" width="74.442" height="74.442" viewBox="0 0 74.442 74.442"><g transform="translate(-926.308 -3525.308)"><circle cx="18" cy="18" r="18" transform="translate(939 3539)" fill="#ffd8b9"/><g transform="translate(926.308 3525.308)"><path d="M73.267,28.584l-6.809-1.7A31.5,31.5,0,0,0,65.2,23.872l3.618-6.031a1.551,1.551,0,0,0-.233-1.895L58.5,5.857A1.551,1.551,0,0,0,56.6,5.623l-6.032,3.62a31.231,31.231,0,0,0-3.006-1.259l-1.7-6.809A1.55,1.55,0,0,0,44.355,0H30.088a1.55,1.55,0,0,0-1.5,1.175l-1.7,6.809a31.306,31.306,0,0,0-3.006,1.259l-6.032-3.62a1.553,1.553,0,0,0-1.895.233L5.858,15.946a1.551,1.551,0,0,0-.233,1.895l3.618,6.031A31.413,31.413,0,0,0,7.985,26.88l-6.809,1.7A1.55,1.55,0,0,0,0,30.088V44.355a1.55,1.55,0,0,0,1.175,1.5l6.809,1.7A31.5,31.5,0,0,0,9.243,50.57L5.625,56.6A1.551,1.551,0,0,0,5.858,58.5L15.946,68.584a1.556,1.556,0,0,0,1.895.233L23.872,65.2a31.416,31.416,0,0,0,3.008,1.259l1.7,6.809a1.55,1.55,0,0,0,1.5,1.175H44.354a1.55,1.55,0,0,0,1.5-1.175l1.7-6.809A31.5,31.5,0,0,0,50.57,65.2L56.6,68.817a1.551,1.551,0,0,0,1.895-.233L68.584,58.5a1.551,1.551,0,0,0,.233-1.895L65.2,50.57a31.414,31.414,0,0,0,1.259-3.008l6.809-1.7a1.55,1.55,0,0,0,1.175-1.5V30.088A1.55,1.55,0,0,0,73.267,28.584ZM71.34,43.144l-6.455,1.614a1.547,1.547,0,0,0-1.1,1.027,28.013,28.013,0,0,1-1.733,4.147,1.548,1.548,0,0,0,.05,1.505l3.432,5.72-8.377,8.377L51.439,62.1a1.56,1.56,0,0,0-1.505-.05,28.094,28.094,0,0,1-4.148,1.733,1.547,1.547,0,0,0-1.027,1.1l-1.614,6.455H31.3l-1.614-6.455a1.547,1.547,0,0,0-1.027-1.1,28.093,28.093,0,0,1-4.148-1.733A1.544,1.544,0,0,0,23,62.1l-5.719,3.432L8.907,57.158l3.432-5.72a1.549,1.549,0,0,0,.05-1.505,28.013,28.013,0,0,1-1.733-4.147,1.547,1.547,0,0,0-1.1-1.027L3.1,43.144V31.3l6.455-1.614a1.547,1.547,0,0,0,1.1-1.027,28.013,28.013,0,0,1,1.733-4.147A1.548,1.548,0,0,0,12.339,23l-3.432-5.72,8.377-8.378L23,12.339a1.537,1.537,0,0,0,1.505.05,28.013,28.013,0,0,1,4.147-1.733,1.547,1.547,0,0,0,1.027-1.1L31.3,3.1H43.144l1.614,6.455a1.547,1.547,0,0,0,1.027,1.1,28.013,28.013,0,0,1,4.147,1.733,1.552,1.552,0,0,0,1.505-.05l5.72-3.433,8.377,8.378L62.1,23a1.549,1.549,0,0,0-.05,1.505,28.013,28.013,0,0,1,1.733,4.147,1.547,1.547,0,0,0,1.1,1.027L71.341,31.3V43.144Z"/><path d="M146.611,128a18.611,18.611,0,1,0,18.611,18.611A18.631,18.631,0,0,0,146.611,128Zm0,34.119a15.509,15.509,0,1,1,15.509-15.509A15.527,15.527,0,0,1,146.611,162.119Z" transform="translate(-109.389 -109.389)"/></g></g></svg>