<svg xmlns="http://www.w3.org/2000/svg" width="68.11" height="90" viewBox="0 0 68.11 90"><g transform="translate(-1534 -3515)"><path d="M37.429,5.094a4,4,0,0,1,6.688,0L77.48,55.915a4,4,0,0,1-3.344,6.2H7.411a4,4,0,0,1-3.344-6.2Z" transform="translate(1602.11 3515) rotate(90)" fill="#d84848"/><path d="M78.874,53H7.125a4,4,0,0,1-3.346-6.191L39.653-8A3.989,3.989,0,0,1,43-9.806,3.987,3.987,0,0,1,46.346-8L82.221,46.809A4,4,0,0,1,78.874,53ZM43-5.719a3.475,3.475,0,0,0-2.789,1.827L7.186,46.563a2.625,2.625,0,0,0-.432,2.669c.449.83,1.592,1.288,3.22,1.288H76.026c1.628,0,2.772-.457,3.22-1.288a2.626,2.626,0,0,0-.431-2.67L45.788-3.892A3.475,3.475,0,0,0,43-5.719Z" transform="translate(1587 3522.116) rotate(90)" fill="#573e48"/></g></svg>