<svg xmlns="http://www.w3.org/2000/svg" width="77.197" height="89" viewBox="0 0 77.197 89"><path d="M.087.675A1.135,1.135,0,0,1,.959.15L65.842.142A1.212,1.212,0,0,1,66.689.5a1.554,1.554,0,0,1,.285,1.067L61.057,66.319a2.139,2.139,0,0,1-.383.886,2.513,2.513,0,0,1-.819.6L35.864,74.392a6.49,6.49,0,0,1-2.393.507,9.647,9.647,0,0,1-2.716-.507s-1.382-.5-23.79-6.665a3.235,3.235,0,0,1-.847-.818,2.96,2.96,0,0,1-.388-1.078L-.043,1.64A1.147,1.147,0,0,1,.087.675Z" transform="translate(10.218 14.101)" fill="#ff886e"/><path d="M37.869,83.957h0a5.554,5.554,0,0,1-1.387-.155L8.187,76.137a2.194,2.194,0,0,1-1.513-1.773L.006,1.4A1.256,1.256,0,0,1,.338.41,1.322,1.322,0,0,1,1.316,0h73.2A1.322,1.322,0,0,1,75.5.411a1.254,1.254,0,0,1,.332.987L69.148,74.353a2.193,2.193,0,0,1-1.514,1.772L39.253,83.8A5.559,5.559,0,0,1,37.869,83.957ZM72.044,2.87h-.01L3.7,2.878A1.206,1.206,0,0,0,2.64,4.44L8.72,71.7a3.094,3.094,0,0,0,.408,1.129,3.424,3.424,0,0,0,.893.857c23.328,6.385,25.043,6.979,25.057,6.984a10.281,10.281,0,0,0,2.86.531,6.9,6.9,0,0,0,2.52-.531l25.27-6.9a2.663,2.663,0,0,0,.862-.628,2.249,2.249,0,0,0,.4-.929L73.226,4.361a1.635,1.635,0,0,0-.3-1.118A1.272,1.272,0,0,0,72.044,2.87Z" fill="#573e48"/></svg>