<svg xmlns="http://www.w3.org/2000/svg" width="73.88" height="85.75"><path d="M62.08 16.35L31.731.178a1.508 1.508 0 00-1.437.008L.784 16.358A1.511 1.511 0 000 17.683v21.125a43.74 43.74 0 0026.216 40.031l4.1 1.785a1.509 1.509 0 001.2 0l4.615-1.993a43.654 43.654 0 0026.75-40.244V17.684a1.512 1.512 0 00-.8-1.334zM3.021 18.578z" fill="#c7ceea"/><path d="M73.08 21.35L42.731 5.178a1.508 1.508 0 00-1.437.008l-29.51 16.172A1.511 1.511 0 0011 22.683v21.125a43.74 43.74 0 0026.216 40.031l4.1 1.785a1.509 1.509 0 001.2 0l4.615-1.993a43.654 43.654 0 0026.75-40.244V22.684a1.512 1.512 0 00-.8-1.334zm-2.222 22.039a40.638 40.638 0 01-24.913 37.464l-.01.005-4.019 1.735-3.491-1.524a40.714 40.714 0 01-24.4-37.262V23.578L42.03 8.227l28.828 15.362zm0 0" fill="#573e48"/></svg>