<svg xmlns="http://www.w3.org/2000/svg" width="75.568" height="75.568"><path d="M68.011 37.784A30.227 30.227 0 1137.784 7.557a30.227 30.227 0 0130.227 30.227zm0 0" fill="#ffd8b9"/><path d="M46.603 42.822zm6.3 6.3" fill="#f4f1ec"/><path d="M37.784 0a37.784 37.784 0 1037.784 37.784A37.784 37.784 0 0037.784 0zm0 73.049a35.265 35.265 0 1135.265-35.265 35.265 35.265 0 01-35.265 35.265zm0 0"/><path d="M56.676 37.783a1.26 1.26 0 10-2.519 0 8.827 8.827 0 01-2.291 5.92 7.539 7.539 0 00-12.382 2.9H27.543l3.732-5.6a1.262 1.262 0 10-2.1-1.4l-5.038 7.557a1.25 1.25 0 00-.064.137 1.3 1.3 0 00-.06.125 1.121 1.121 0 000 .868 1.3 1.3 0 00.06.126 1.188 1.188 0 00.064.136l5.038 7.557a1.262 1.262 0 102.1-1.4l-3.73-5.592h11.5a7.557 7.557 0 1014.32-3.349 11.336 11.336 0 003.312-7.986zM46.6 54.156a5.038 5.038 0 115.038-5.038 5.038 5.038 0 01-5.038 5.038zM30.227 28.967h17.8l-3.732 5.6a1.262 1.262 0 102.1 1.4l5.038-7.557a1.251 1.251 0 00.064-.137 1.168 1.168 0 00.06-.125 1.118 1.118 0 000-.867 1.074 1.074 0 00-.06-.126 1.191 1.191 0 00-.064-.136l-5.038-7.557a1.262 1.262 0 10-2.1 1.4l3.73 5.591h-17.8a11.348 11.348 0 00-11.333 11.331 1.26 1.26 0 102.519 0 8.826 8.826 0 018.816-8.817zm0 0"/><path d="M46.6 46.6a1.26 1.26 0 00-1.259 1.259v2.519a1.26 1.26 0 002.519 0v-2.519A1.26 1.26 0 0046.6 46.6zm0 0"/></svg>