<svg xmlns="http://www.w3.org/2000/svg" viewBox="0 0 66 87"><g transform="translate(-594 -3485)"><circle cx="14" cy="14" r="14" transform="translate(608 3493)"/><path d="M615.5 3520a17.385 17.385 0 01-12.374-5.126A17.385 17.385 0 01598 3502.5a17.386 17.386 0 015.126-12.375 17.5 17.5 0 0124.749 0A17.386 17.386 0 01633 3502.5a17.385 17.385 0 01-5.126 12.374A17.387 17.387 0 01615.5 3520zm0-32a14.5 14.5 0 1014.5 14.5 14.516 14.516 0 00-14.5-14.5z"/><path d="M603.923 3514.329l2.866 1.282a48.513 48.513 0 00-4.489 20.448c0 11.813 4.486 25.193 4.486 25.193h-3.469s-4.486-13.38-4.486-25.193a53.087 53.087 0 015.092-21.73z"/><circle cx="11" cy="11" r="11" transform="translate(638 3527)"/><path d="M643.5 3549a14.4 14.4 0 01-10.253-4.247A14.406 14.406 0 01629 3534.5a14.405 14.405 0 014.247-10.253 14.5 14.5 0 0120.506 0A14.405 14.405 0 01658 3534.5a14.406 14.406 0 01-4.247 10.253A14.4 14.4 0 01643.5 3549zm0-26.686a12.2 12.2 0 00-12.186 12.186 12.186 12.186 0 0024.372 0 12.2 12.2 0 00-12.186-12.186z"/><path d="M605.374 3564.818l-.847-2.543a43.88 43.88 0 0016.88-4.397c8.242-4.2 14.891-12.078 14.891-12.078l2.227 2.226s-7.318 8.718-15.562 12.918-17.59 3.874-17.59 3.874z"/><circle cx="11" cy="11" r="11" transform="translate(598 3550)"/><circle cx="11" cy="11" r="11" transform="translate(594 3550)"/></g></svg>