<svg xmlns="http://www.w3.org/2000/svg" width="106.87" height="62.527"><path d="M37.905 1.5h67.465v59.527H8.907M0 37.603h30.09M20.943 26.53h26.169" fill="none" stroke="currentColor" stroke-width="3"/><path fill="#88dccd" d="M46.389 4.747h38v15h-38z"/><path d="M8.907 10.888h24.072" fill="none" stroke="currentColor" stroke-width="3"/><path d="M2.89 9.168h17.09" fill="none" stroke="#88dccd" stroke-width="3"/><path fill="#88dccd" d="M37.389 32.747h12v12h-12z"/><g fill="none" stroke="currentColor" stroke-width="3"><path stroke="none" d="M52.389 10.747h47v18h-47z"/><path d="M53.889 12.247h44v15h-44z"/></g><g fill="none" stroke="currentColor" stroke-width="3"><path stroke="none" d="M40.389 34.747h18v17h-18z"/><path d="M41.889 36.247h15v14h-15z"/></g><path fill="#88dccd" d="M58.389 32.747h12v12h-12zM78.389 32.747h12v12h-12z"/><g fill="none" stroke="currentColor" stroke-width="3"><path stroke="none" d="M61.389 34.747h17v17h-17z"/><path d="M62.889 36.247h14v14h-14z"/></g><g fill="none" stroke="currentColor" stroke-width="3"><path stroke="none" d="M82.389 34.747h17v17h-17z"/><path d="M83.889 36.247h14v14h-14z"/></g><path d="M14.925 24.642h9.457M5.469 39.255h9.457" fill="none" stroke="#88dccd" stroke-width="3"/></svg>