<svg xmlns="http://www.w3.org/2000/svg" viewBox="0 0 77.197 89"><path d="M10.305 14.776a1.135 1.135 0 01.872-.525l64.883-.008a1.212 1.212 0 01.847.358 1.554 1.554 0 01.285 1.067L71.275 80.42a2.139 2.139 0 01-.383.886 2.513 2.513 0 01-.819.6l-23.991 6.587a6.49 6.49 0 01-2.393.507 9.647 9.647 0 01-2.716-.507s-1.382-.5-23.79-6.665a3.235 3.235 0 01-.847-.818 2.96 2.96 0 01-.388-1.078l-5.773-64.191a1.147 1.147 0 01.13-.965z"/><path d="M37.869 83.957a5.554 5.554 0 01-1.387-.155L8.187 76.137a2.194 2.194 0 01-1.513-1.773L.006 1.4A1.256 1.256 0 01.338.41 1.322 1.322 0 011.316 0h73.2a1.322 1.322 0 01.984.411 1.254 1.254 0 01.332.987l-6.684 72.955a2.193 2.193 0 01-1.514 1.772L39.253 83.8a5.559 5.559 0 01-1.384.157zM72.044 2.87h-.01L3.7 2.878A1.206 1.206 0 002.64 4.44L8.72 71.7a3.094 3.094 0 00.408 1.129 3.424 3.424 0 00.893.857c23.328 6.385 25.043 6.979 25.057 6.984a10.281 10.281 0 002.86.531 6.9 6.9 0 002.52-.531l25.27-6.9a2.663 2.663 0 00.862-.628 2.249 2.249 0 00.4-.929l6.236-67.852a1.635 1.635 0 00-.3-1.118 1.272 1.272 0 00-.882-.373z"/></svg>