<svg xmlns="http://www.w3.org/2000/svg" viewBox="0 0 100.638 72.438"><path d="M48.145 58.926s14.018 3.281 27.44-2.982 25.054-18.791 25.054-18.791a107.221 107.221 0 00-10.737-10.737 62.61 62.61 0 00-10.737-7.158s4.176 9.47-3.579 19.386-27.441 20.282-27.441 20.282z"/><circle cx="7.679" cy="7.679" r="7.679" transform="translate(41.064 28.539)"/><path d="M82.789 0L68.264 14.525c-6.024-2.776-12.74-4.8-19.52-4.8-12.567 0-24.907 6.942-33.045 12.765A105.714 105.714 0 00.966 35.174L0 36.219l.96 1.044a105.714 105.714 0 0014.732 12.684A87.934 87.934 0 0026.3 56.486L12.525 70.265l2.173 2.173L84.963 2.173zM39.317 43.474A11.893 11.893 0 0156 26.793zm18.868-18.868A14.974 14.974 0 0037.131 45.66l-8.545 8.543a83.542 83.542 0 01-11.052-6.719 108.592 108.592 0 01-13.3-11.265 108.6 108.6 0 0113.3-11.265c7.766-5.547 19.476-12.157 31.21-12.157a43.371 43.371 0 0117.2 4.047zm-9.442 23.516a11.956 11.956 0 01-1.49-.1l-2.6 2.592a14.961 14.961 0 0018.488-18.488l-2.6 2.6a11.887 11.887 0 01-11.807 13.393z"/><path d="M96.521 35.178a105.71 105.71 0 00-14.732-12.684 94.472 94.472 0 00-5.406-3.594l-2.235 2.235a88.504 88.504 0 015.805 3.822 108.6 108.6 0 0113.3 11.265 108.594 108.594 0 01-13.3 11.265c-7.762 5.546-19.476 12.156-31.21 12.156a38.5 38.5 0 01-11.277-1.828l-2.436 2.436a42.67 42.67 0 0013.713 2.463c12.567 0 24.907-6.942 33.045-12.765A105.714 105.714 0 0096.52 37.265l.96-1.045z"/></svg>