<svg xmlns="http://www.w3.org/2000/svg" width="73.88" height="85.75" viewBox="0 0 73.88 85.75"><g transform="translate(-1226 -3517)"><g transform="translate(1227.945 3517)"><path d="M62.135,16.35,31.786.178a1.508,1.508,0,0,0-1.437.008L.839,16.358a1.511,1.511,0,0,0-.784,1.325V38.808A43.74,43.74,0,0,0,26.271,78.839l4.1,1.785a1.509,1.509,0,0,0,1.2,0l4.615-1.993a43.654,43.654,0,0,0,26.75-40.244V17.684a1.512,1.512,0,0,0-.8-1.334ZM3.076,18.578Z" transform="translate(-2 0)" fill="#c7ceea"/></g><g transform="translate(1236.945 3522)"><path d="M62.135,16.35,31.786.178a1.508,1.508,0,0,0-1.437.008L.839,16.358a1.511,1.511,0,0,0-.784,1.325V38.808A43.74,43.74,0,0,0,26.271,78.839l4.1,1.785a1.509,1.509,0,0,0,1.2,0l4.615-1.993a43.654,43.654,0,0,0,26.75-40.244V17.684a1.512,1.512,0,0,0-.8-1.334ZM59.913,38.389A40.638,40.638,0,0,1,35,75.853l-.01.005-4.019,1.735L27.48,76.069a40.714,40.714,0,0,1-24.4-37.262V18.578L31.085,3.227,59.913,18.589Zm0,0" transform="translate(0 0)" fill="#573e48"/></g></g></svg>