<svg xmlns="http://www.w3.org/2000/svg" width="106.87" height="62.527" viewBox="0 0 106.87 62.527"><g transform="translate(-588.611 -3962.253)"><path d="M627.971,3977.753h67.465v59.527H598.973" transform="translate(-1.455 -14)" fill="none" stroke="#573e48" stroke-width="3"/><path d="M591.132,4011.178h30.09" transform="translate(-2.521 -11.322)" fill="none" stroke="#573e48" stroke-width="3"/><path d="M609.894,4000.862h26.169" transform="translate(-0.34 -12.079)" fill="none" stroke="#573e48" stroke-width="3"/><rect width="38" height="15" transform="translate(635 3967)" fill="#88dccd"/><path d="M598.973,3988.674h24.072" transform="translate(-1.455 -15.533)" fill="none" stroke="#573e48" stroke-width="3"/><path d="M598.973,3988.919h17.09" transform="translate(-7.472 -17.498)" fill="none" stroke="#88dccd" stroke-width="3"/><rect width="12" height="12" transform="translate(626 3995)" fill="#88dccd"/><g transform="translate(641 3973)" fill="none" stroke="#573e48" stroke-width="3"><rect width="47" height="18" stroke="none"/><rect x="1.5" y="1.5" width="44" height="15" fill="none"/></g><g transform="translate(629 3997)" fill="none" stroke="#573e48" stroke-width="3"><rect width="18" height="17" stroke="none"/><rect x="1.5" y="1.5" width="15" height="14" fill="none"/></g><rect width="12" height="12" transform="translate(647 3995)" fill="#88dccd"/><rect width="12" height="12" transform="translate(667 3995)" fill="#88dccd"/><g transform="translate(650 3997)" fill="none" stroke="#573e48" stroke-width="3"><rect width="17" height="17" stroke="none"/><rect x="1.5" y="1.5" width="14" height="14" fill="none"/></g><g transform="translate(671 3997)" fill="none" stroke="#573e48" stroke-width="3"><rect width="17" height="17" stroke="none"/><rect x="1.5" y="1.5" width="14" height="14" fill="none"/></g><path d="M598.973,3988.919h9.457" transform="translate(4.563 -2.024)" fill="none" stroke="#88dccd" stroke-width="3"/><path d="M598.973,3988.919h9.457" transform="translate(-4.893 12.589)" fill="none" stroke="#88dccd" stroke-width="3"/></g></svg>