<svg xmlns="http://www.w3.org/2000/svg" width="62.451" height="87"><path fill="#f2c549" d="M33.451 69h29v18h-29zM33.451 38h29v18h-29zM33.451 8h29v18h-29z"/><path d="M53.451 52h-31V30h31v22zm-29-20v18h27V32zM53.451 22h-31V0h31v22zm-29-20v18h27V2zM53.451 82h-31V60h31v22zm-29-20v18h27V62z" fill="#573e48"/><path d="M15.217 41H1v29.927l14.669.448" fill="none" stroke="#573e48" stroke-width="2"/><g fill="#573e48"><path d="M10.745 78.823L9.381 77.36l7.148-7.157 1.344 1.406z"/><g transform="rotate(-44.03 86.113 21.109)" stroke="#573e48" stroke-linecap="round" stroke-width="2"><path stroke="none" d="M0 0h2v10H0z"/><rect x="1" y="1" height="8" fill="none"/></g></g></svg>