<svg xmlns="http://www.w3.org/2000/svg" width="62.451" height="87" viewBox="0 0 62.451 87"><g transform="translate(-325.549 -3953)"><rect width="29" height="18" transform="translate(359 4022)" fill="#f2c549"/><rect width="29" height="18" transform="translate(359 3991)" fill="#f2c549"/><rect width="29" height="18" transform="translate(359 3961)" fill="#f2c549"/><path d="M31,8H0V-14H31V8ZM2-12V6H29V-12Z" transform="translate(348 3997)" fill="#573e48"/><path d="M31,8H0V-14H31V8ZM2-12V6H29V-12Z" transform="translate(348 3967)" fill="#573e48"/><path d="M31,8H0V-14H31V8ZM2-12V6H29V-12Z" transform="translate(348 4027)" fill="#573e48"/><path d="M340.766,3994H326.549v29.927l14.669.448" fill="none" stroke="#573e48" stroke-width="2"/><g transform="translate(0 1)"><path d="M0,0H2l.36,10.109-1.945.024Z" transform="translate(336.294 4030.823) rotate(-133)" fill="#573e48"/><g transform="matrix(0.719, -0.695, 0.695, 0.719, 335.076, 4017.78)" fill="#573e48" stroke="#573e48" stroke-linecap="round" stroke-width="2"><rect width="2" height="10" stroke="none"/><rect x="1" y="1" height="8" fill="none"/></g></g></g></svg>