<svg xmlns="http://www.w3.org/2000/svg" viewBox="0 0 469.333 469.333"><path d="M160 0h-21.333A10.66 10.66 0 00128 10.667V128H10.667A10.66 10.66 0 000 138.667V160a10.66 10.66 0 0010.667 10.667H160A10.66 10.66 0 00170.667 160V10.667A10.66 10.66 0 00160 0zm298.667 128H341.333V10.667A10.66 10.66 0 00330.667 0h-21.333a10.66 10.66 0 00-10.667 10.667V160a10.66 10.66 0 0010.667 10.667h149.333A10.66 10.66 0 00469.334 160v-21.333A10.662 10.662 0 00458.667 128zm0 170.667H309.333a10.66 10.66 0 00-10.667 10.667v149.333a10.66 10.66 0 0010.667 10.667h21.333a10.66 10.66 0 0010.667-10.667V341.333h117.333a10.66 10.66 0 0010.667-10.667v-21.333a10.66 10.66 0 00-10.666-10.666zm-298.667 0H10.667A10.66 10.66 0 000 309.333v21.333a10.66 10.66 0 0010.667 10.667H128v117.333a10.66 10.66 0 0010.667 10.667H160a10.66 10.66 0 0010.667-10.667V309.333A10.66 10.66 0 00160 298.667z"/></svg>