<svg xmlns="http://www.w3.org/2000/svg" viewBox="0 0 86.447 85.506"><defs><filter id="a" x="2.5" y="1.5" width="42.947" height="43.006" filterUnits="userSpaceOnUse"><feOffset dx="2" dy="2"/><feGaussianBlur stdDeviation="1" result="b"/><feFlood flood-opacity=".102"/><feComposite operator="in" in2="b"/><feComposite in="SourceGraphic"/></filter><filter id="b" x="0" y="0" width="40.447" height="40.006" filterUnits="userSpaceOnUse"><feOffset dx="-2" dy="-1"/><feGaussianBlur stdDeviation=".5" result="d"/><feFlood flood-color="#fffefe"/><feComposite operator="in" in2="d"/><feComposite in="SourceGraphic"/></filter><filter id="c" x="2.5" y="42.5" width="42.947" height="43.006" filterUnits="userSpaceOnUse"><feOffset dx="2" dy="2"/><feGaussianBlur stdDeviation="1" result="f"/><feFlood flood-opacity=".102"/><feComposite operator="in" in2="f"/><feComposite in="SourceGraphic"/></filter><filter id="d" x="0" y="41" width="40.447" height="40.006" filterUnits="userSpaceOnUse"><feOffset dx="-2" dy="-1"/><feGaussianBlur stdDeviation=".5" result="h"/><feFlood flood-color="#fffefe"/><feComposite operator="in" in2="h"/><feComposite in="SourceGraphic"/></filter><filter id="e" x="43.5" y="1.5" width="42.947" height="43.006" filterUnits="userSpaceOnUse"><feOffset dx="2" dy="2"/><feGaussianBlur stdDeviation="1" result="j"/><feFlood flood-opacity=".102"/><feComposite operator="in" in2="j"/><feComposite in="SourceGraphic"/></filter><filter id="f" x="41" y="0" width="40.447" height="40.006" filterUnits="userSpaceOnUse"><feOffset dx="-2" dy="-1"/><feGaussianBlur stdDeviation=".5" result="l"/><feFlood flood-color="#fffefe"/><feComposite operator="in" in2="l"/><feComposite in="SourceGraphic"/></filter><filter id="g" x="43.5" y="42.5" width="42.947" height="43.006" filterUnits="userSpaceOnUse"><feOffset dx="2" dy="2"/><feGaussianBlur stdDeviation="1" result="n"/><feFlood flood-opacity=".102"/><feComposite operator="in" in2="n"/><feComposite in="SourceGraphic"/></filter><filter id="h" x="41" y="41" width="40.447" height="40.006" filterUnits="userSpaceOnUse"><feOffset dx="-2" dy="-1"/><feGaussianBlur stdDeviation=".5" result="p"/><feFlood flood-color="#fffefe"/><feComposite operator="in" in2="p"/><feComposite in="SourceGraphic"/></filter><filter id="i" x="16.259" y="16.239" width="50.482" height="49.331" filterUnits="userSpaceOnUse"><feOffset dx="-1" dy="-1"/><feGaussianBlur stdDeviation="4.5" result="r"/><feFlood flood-color="#ff8970"/><feComposite operator="in" in2="r"/><feComposite in="SourceGraphic"/></filter><filter id="j" x="29.759" y="29.739" width="29.482" height="28.331" filterUnits="userSpaceOnUse"><feOffset dx="2" dy="2"/><feGaussianBlur stdDeviation="1" result="t"/><feFlood flood-opacity=".188"/><feComposite operator="in" in2="t"/><feComposite in="SourceGraphic"/></filter></defs><g filter="url(#a)"><path d="M5.431 2.5h33.016c1.5.2 2 1.305 2 2.916V36.59c0 1.61-1.772 2.655-2.22 2.916H5.942C3.933 39.4 3.5 38.2 3.5 36.59V5.416C3.5 3.805 5.431 2.5 5.431 2.5z"/></g><g filter="url(#b)"><path d="M5.635 2.5h32.678a2.1 2.1 0 012.135 2.074v32.859a2.1 2.1 0 01-2.135 2.074H5.635A2.1 2.1 0 013.5 37.433V4.574A2.1 2.1 0 015.635 2.5z"/></g><path d="M13.831 28.104V14.335a1 1 0 01.319-.741 1.084 1.084 0 01.786-.31h2.118a1.037 1.037 0 01.757.31 1.006 1.006 0 01.313.741v4.977h7.833v-4.977a1 1 0 01.319-.741 1.056 1.056 0 01.763-.31h2.117a1.065 1.065 0 01.78.31 1.006 1.006 0 01.313.741v13.769a.971.971 0 01-.324.735 1.086 1.086 0 01-.769.3h-2.118a1.088 1.088 0 01-.763-.293.945.945 0 01-.319-.724v-5.68h-7.833v5.685a.953.953 0 01-.313.724 1.068 1.068 0 01-.757.293h-2.118a1.106 1.106 0 01-.774-.3.964.964 0 01-.33-.74z"/><g filter="url(#c)"><path d="M5.431 43.5h33.016c1.5.2 2 1.305 2 2.916V77.59c0 1.61-1.772 2.655-2.22 2.916H5.942C3.933 80.4 3.5 79.2 3.5 77.59V46.416c0-1.611 1.931-2.916 1.931-2.916z"/></g><g filter="url(#d)"><path d="M5.635 43.5h32.678a2.1 2.1 0 012.135 2.074v32.859a2.1 2.1 0 01-2.135 2.074H5.635A2.1 2.1 0 013.5 78.433V45.574A2.1 2.1 0 015.635 43.5z"/></g><path d="M11.532 69.076V55.351a1.041 1.041 0 01.307-.763 1.018 1.018 0 01.751-.31h4.634a1.352 1.352 0 01.843.31 1.508 1.508 0 01.535.741l3.359 9.445 3.356-9.445a1.508 1.508 0 01.535-.741 1.352 1.352 0 01.843-.31h4.634a1 1 0 01.746.31 1.051 1.051 0 01.3.763v13.725a1.013 1.013 0 01-.313.758 1.047 1.047 0 01-.757.3H29.26a1.047 1.047 0 01-.757-.3 1.013 1.013 0 01-.313-.758V58.271l-4.02 10.872a1.581 1.581 0 01-.558.7 1.4 1.4 0 01-.843.293h-1.627a1.375 1.375 0 01-.837-.293 1.679 1.679 0 01-.564-.7l-4.008-10.872v10.805a1.013 1.013 0 01-.313.758 1.047 1.047 0 01-.757.3h-2.046a1.066 1.066 0 01-.763-.3 1 1 0 01-.322-.758z"/><g filter="url(#e)"><path d="M46.431 2.5h33.016c1.5.2 2 1.305 2 2.916V36.59c0 1.61-1.772 2.655-2.22 2.916H46.942C44.933 39.4 44.5 38.2 44.5 36.59V5.416c0-1.611 1.931-2.916 1.931-2.916z"/></g><g filter="url(#f)"><path d="M46.635 2.5h32.678a2.1 2.1 0 012.135 2.074v32.859a2.1 2.1 0 01-2.135 2.074H46.635a2.1 2.1 0 01-2.135-2.074V4.574A2.1 2.1 0 0146.635 2.5z"/></g><path d="M54.797 15.375v-1.04a1 1 0 01.307-.752 1.066 1.066 0 01.774-.3h14.449a1.066 1.066 0 01.774.3 1 1 0 01.307.752v1.04a.987.987 0 01-.307.747 1.077 1.077 0 01-.774.293h-5.078v11.712a.953.953 0 01-.313.724 1.068 1.068 0 01-.757.293h-2.152a1.068 1.068 0 01-.757-.293.953.953 0 01-.313-.724V16.412h-5.079a1.077 1.077 0 01-.774-.293.987.987 0 01-.307-.744z"/><g filter="url(#g)"><path d="M46.431 43.5h33.016c1.5.2 2 1.305 2 2.916V77.59c0 1.61-1.772 2.655-2.22 2.916H46.942C44.933 80.4 44.5 79.2 44.5 77.59V46.416c0-1.611 1.931-2.916 1.931-2.916z"/></g><g filter="url(#h)"><path d="M46.635 43.5h32.678a2.1 2.1 0 012.135 2.074v32.859a2.1 2.1 0 01-2.135 2.074H46.635a2.1 2.1 0 01-2.135-2.074V45.574a2.1 2.1 0 012.135-2.074z"/></g><path d="M56.198 69.12V55.351a1.022 1.022 0 01.319-.763 1.056 1.056 0 01.763-.31h2.141a1.037 1.037 0 01.757.31 1.031 1.031 0 01.313.763v11.655h9.917a1.037 1.037 0 01.757.31 1.006 1.006 0 01.313.741v1.04a.988.988 0 01-.313.735 1.047 1.047 0 01-.757.3H57.283a1.088 1.088 0 01-.763-.293.945.945 0 01-.322-.719z"/><g transform="translate(0 -.004)" filter="url(#i)"><path d="M42.255 30.74h.493a11.334 11.334 0 0111.494 11.166 11.334 11.334 0 01-11.495 11.165h-.493A11.334 11.334 0 0130.76 41.906 11.334 11.334 0 0142.255 30.74z"/></g><g transform="translate(0 -.004)" filter="url(#j)"><path d="M42.255 30.74h.493a11.334 11.334 0 0111.494 11.166 11.334 11.334 0 01-11.495 11.165h-.493A11.334 11.334 0 0130.76 41.906 11.334 11.334 0 0142.255 30.74z"/></g><g transform="translate(30.534 30.545)"><ellipse cx="11.233" cy="10.985" rx="11.233" ry="10.985" transform="translate(.243 .265)"/><path d="M11.905 0A11.677 11.677 0 000 11.434a11.677 11.677 0 0011.905 11.435 11.677 11.677 0 0011.906-11.435A11.677 11.677 0 0011.905 0zm-.181 2.271a1.512 1.512 0 011.543 1.477 1.542 1.542 0 01-3.081 0 1.51 1.51 0 011.539-1.477zM18.4 7.046l-4.58.556v4.4l2.219 7.115a.827.827 0 01-.627 1.01.856.856 0 01-1.052-.583l-2.273-6.476h-.7l-2.093 6.614a.871.871 0 01-1.124.462.852.852 0 01-.54-1.084l1.92-6.982V7.6l-4.22-.552a.744.744 0 01-.692-.816.788.788 0 01.859-.7l5.127.424h2.248l5.459-.432a.759.759 0 11.069 1.522z"/></g></svg>