<svg xmlns="http://www.w3.org/2000/svg" viewBox="0 0 202.748 202.748"><path d="M199.876 119.867a7.5 7.5 0 00-8.366-.6c-12.57 7.225-25.856 10.889-39.489 10.889-43.804 0-79.44-35.638-79.44-79.443 0-13.693 3.669-26.961 10.906-39.434a7.498 7.498 0 00-.576-8.379A7.496 7.496 0 0074.922.309c-21.161 6.1-40.207 19.042-53.629 36.441C7.363 54.809 0 76.437 0 99.297c0 57.035 46.4 103.438 103.434 103.438 22.86 0 44.493-7.36 62.561-21.286 17.411-13.419 30.359-32.454 36.459-53.6a7.5 7.5 0 00-2.578-7.982zm-96.442 67.867C54.671 187.734 15 148.061 15 99.297c0-32.898 18.825-62.836 47.436-77.882a90.487 90.487 0 00-4.855 29.298c0 52.076 42.366 94.443 94.44 94.443 10 0 19.816-1.634 29.347-4.873-15.044 28.617-45.008 47.451-77.934 47.451z"/></svg>