<svg xmlns="http://www.w3.org/2000/svg" width="23" height="22.999" viewBox="0 0 23 22.999"><g transform="translate(0 0.001)"><path d="M20.524,0H11.8a.674.674,0,0,0-.476.2L.724,10.791a2.479,2.479,0,0,0,0,3.5l7.983,7.982a2.459,2.459,0,0,0,1.75.723h0a2.459,2.459,0,0,0,1.751-.723L22.8,11.68A.674.674,0,0,0,23,11.2V2.475A2.479,2.479,0,0,0,20.524,0Zm1.128,10.925-10.4,10.4a1.133,1.133,0,0,1-1.6,0L1.677,13.34a1.13,1.13,0,0,1,0-1.6l10.4-10.4h8.45a1.13,1.13,0,0,1,1.128,1.128Zm0,0"/><path d="M334.77,85.078a2.117,2.117,0,1,0,1.5.62A2.1,2.1,0,0,0,334.77,85.078Zm.544,2.661a.769.769,0,1,1,.225-.544A.764.764,0,0,1,335.314,87.74Zm0,0" transform="translate(-317.709 -81.257)"/></g></svg>