<svg xmlns="http://www.w3.org/2000/svg" width="23" height="22.999"><path d="M20.524.001H11.8a.674.674 0 00-.476.2L.724 10.792a2.479 2.479 0 000 3.5l7.983 7.982a2.459 2.459 0 001.75.723 2.459 2.459 0 001.751-.723L22.8 11.681a.674.674 0 00.2-.48V2.476A2.479 2.479 0 0020.524.001zm1.128 10.925l-10.4 10.4a1.133 1.133 0 01-1.6 0l-7.975-7.985a1.13 1.13 0 010-1.6l10.4-10.4h8.45a1.13 1.13 0 011.128 1.128zm0 0"/><path d="M17.061 3.822a2.117 2.117 0 101.5.62 2.1 2.1 0 00-1.5-.62zm.544 2.661a.769.769 0 11.225-.544.764.764 0 01-.225.545zm0 0"/></svg>