<svg xmlns="http://www.w3.org/2000/svg" xmlns:xlink="http://www.w3.org/1999/xlink" width="66.334" height="66.379" viewBox="0 0 66.334 66.379"><defs><filter id="a" x="0" y="0" width="34.599" height="34.644" filterUnits="userSpaceOnUse"><feOffset dx="2" dy="2" input="SourceAlpha"/><feGaussianBlur stdDeviation="1" result="b"/><feFlood flood-opacity="0.102"/><feComposite operator="in" in2="b"/><feComposite in="SourceGraphic"/></filter><filter id="c" x="0" y="31.735" width="34.599" height="34.644" filterUnits="userSpaceOnUse"><feOffset dx="2" dy="2" input="SourceAlpha"/><feGaussianBlur stdDeviation="1" result="d"/><feFlood flood-opacity="0.102"/><feComposite operator="in" in2="d"/><feComposite in="SourceGraphic"/></filter><filter id="e" x="31.735" y="0" width="34.599" height="34.644" filterUnits="userSpaceOnUse"><feOffset dx="2" dy="2" input="SourceAlpha"/><feGaussianBlur stdDeviation="1" result="f"/><feFlood flood-opacity="0.102"/><feComposite operator="in" in2="f"/><feComposite in="SourceGraphic"/></filter><filter id="g" x="31.735" y="31.735" width="34.599" height="34.644" filterUnits="userSpaceOnUse"><feOffset dx="2" dy="2" input="SourceAlpha"/><feGaussianBlur stdDeviation="1" result="h"/><feFlood flood-opacity="0.102"/><feComposite operator="in" in2="h"/><feComposite in="SourceGraphic"/></filter><filter id="i" x="7.599" y="8.358" width="45.176" height="44.285" filterUnits="userSpaceOnUse"><feOffset dx="-1" dy="-1" input="SourceAlpha"/><feGaussianBlur stdDeviation="4.5" result="j"/><feFlood flood-color="#ff8970"/><feComposite operator="in" in2="j"/><feComposite in="SourceGraphic"/></filter><filter id="k" x="21.099" y="21.858" width="24.176" height="23.285" filterUnits="userSpaceOnUse"><feOffset dx="2" dy="2" input="SourceAlpha"/><feGaussianBlur stdDeviation="1" result="l"/><feFlood flood-opacity="0.188"/><feComposite operator="in" in2="l"/><feComposite in="SourceGraphic"/></filter></defs><g transform="translate(-389 -359.994)"><g transform="translate(390 360.994)"><g transform="matrix(1, 0, 0, 1, -1, -1)" filter="url(#a)"><path d="M1.494,0H27.05C28.209.152,28.6,1.01,28.6,2.257v24.13c0,1.246-1.372,2.055-1.718,2.257H1.89C.335,28.564,0,27.634,0,26.387V2.257C0,1.01,1.494,0,1.494,0Z" transform="translate(1 1)" fill="#fff"/></g><path d="M1.652,0H26.946A1.629,1.629,0,0,1,28.6,1.605V27.039a1.629,1.629,0,0,1-1.652,1.605H1.652A1.629,1.629,0,0,1,0,27.039V1.605A1.629,1.629,0,0,1,1.652,0Z" transform="translate(0 0)" fill="#ff5029"/><path d="M9.915-87.957V-98.614a.772.772,0,0,1,.247-.574.839.839,0,0,1,.608-.24h1.639a.8.8,0,0,1,.586.24.778.778,0,0,1,.242.574v3.852H19.3v-3.852a.772.772,0,0,1,.247-.574.818.818,0,0,1,.59-.24h1.639a.824.824,0,0,1,.6.24.778.778,0,0,1,.242.574v10.658a.752.752,0,0,1-.251.569.841.841,0,0,1-.595.235H20.138a.842.842,0,0,1-.59-.227.731.731,0,0,1-.247-.561v-4.4H13.238v4.4a.737.737,0,0,1-.242.561.827.827,0,0,1-.586.227H10.77a.856.856,0,0,1-.6-.235A.746.746,0,0,1,9.915-87.957Z" transform="translate(-1.918 107.775)" fill="#f4f1ec"/></g><g transform="translate(390 392.729)"><g transform="matrix(1, 0, 0, 1, -1, -32.74)" filter="url(#c)"><path d="M1.494,0H27.05C28.209.152,28.6,1.01,28.6,2.257v24.13c0,1.246-1.372,2.055-1.718,2.257H1.89C.335,28.564,0,27.634,0,26.387V2.257C0,1.01,1.494,0,1.494,0Z" transform="translate(1 32.74)" fill="#fff"/></g><path d="M1.652,0H26.946A1.629,1.629,0,0,1,28.6,1.605V27.039a1.629,1.629,0,0,1-1.652,1.605H1.652A1.629,1.629,0,0,1,0,27.039V1.605A1.629,1.629,0,0,1,1.652,0Z" transform="translate(0 0)" fill="#ff5029"/><path d="M9.915-87.974V-98.6a.806.806,0,0,1,.238-.591.788.788,0,0,1,.582-.24h3.587a1.046,1.046,0,0,1,.652.24,1.167,1.167,0,0,1,.414.574l2.6,7.311,2.6-7.311A1.167,1.167,0,0,1,21-99.188a1.046,1.046,0,0,1,.652-.24h3.587a.774.774,0,0,1,.577.24.814.814,0,0,1,.234.591v10.624a.784.784,0,0,1-.242.586.81.81,0,0,1-.586.235H23.637a.81.81,0,0,1-.586-.235.784.784,0,0,1-.242-.586v-8.364L19.7-87.922a1.224,1.224,0,0,1-.432.544,1.083,1.083,0,0,1-.652.227h-1.26a1.064,1.064,0,0,1-.648-.227,1.3,1.3,0,0,1-.436-.544l-3.1-8.415v8.364a.784.784,0,0,1-.242.586.81.81,0,0,1-.586.235H10.752a.825.825,0,0,1-.59-.235A.777.777,0,0,1,9.915-87.974Z" transform="translate(-3.698 107.771)" fill="#f4f1ec"/></g><g transform="translate(421.735 360.994)"><g transform="matrix(1, 0, 0, 1, -32.74, -1)" filter="url(#e)"><path d="M1.494,0H27.05C28.209.152,28.6,1.01,28.6,2.257v24.13c0,1.246-1.372,2.055-1.718,2.257H1.89C.335,28.564,0,27.634,0,26.387V2.257C0,1.01,1.494,0,1.494,0Z" transform="translate(32.74 1)" fill="#fff"/></g><path d="M1.652,0H26.946A1.629,1.629,0,0,1,28.6,1.605V27.039a1.629,1.629,0,0,1-1.652,1.605H1.652A1.629,1.629,0,0,1,0,27.039V1.605A1.629,1.629,0,0,1,1.652,0Z" transform="translate(0 0)" fill="#ff5029"/><path d="M1.387-97.81v-.8a.778.778,0,0,1,.238-.582.825.825,0,0,1,.6-.231H13.408a.825.825,0,0,1,.6.231.778.778,0,0,1,.238.582v.8a.764.764,0,0,1-.238.578.834.834,0,0,1-.6.227H9.477v9.066a.737.737,0,0,1-.242.561.827.827,0,0,1-.586.227H6.983a.827.827,0,0,1-.586-.227.737.737,0,0,1-.242-.561v-9.066H2.224a.834.834,0,0,1-.6-.227A.764.764,0,0,1,1.387-97.81Z" transform="translate(6.584 107.775)" fill="#f4f1ec"/></g><g transform="translate(421.735 392.729)"><g transform="matrix(1, 0, 0, 1, -32.74, -32.74)" filter="url(#g)"><path d="M1.494,0H27.05C28.209.152,28.6,1.01,28.6,2.257v24.13c0,1.246-1.372,2.055-1.718,2.257H1.89C.335,28.564,0,27.634,0,26.387V2.257C0,1.01,1.494,0,1.494,0Z" transform="translate(32.74 32.74)" fill="#fff"/></g><path d="M1.652,0H26.946A1.629,1.629,0,0,1,28.6,1.605V27.039a1.629,1.629,0,0,1-1.652,1.605H1.652A1.629,1.629,0,0,1,0,27.039V1.605A1.629,1.629,0,0,1,1.652,0Z" transform="translate(0 0)" fill="#ff5029"/><path d="M9.915-87.939V-98.6a.791.791,0,0,1,.247-.591.818.818,0,0,1,.59-.24h1.657a.8.8,0,0,1,.586.24.8.8,0,0,1,.242.591v9.023h7.676a.8.8,0,0,1,.586.24.778.778,0,0,1,.242.574v.8a.765.765,0,0,1-.242.569.81.81,0,0,1-.586.235H10.752a.842.842,0,0,1-.59-.227A.731.731,0,0,1,9.915-87.939Z" transform="translate(-0.861 107.771)" fill="#f4f1ec"/></g><g transform="matrix(1, 0, 0, 1, 389, 359.99)" filter="url(#i)"><path d="M8.9,0h.381a8.773,8.773,0,0,1,8.9,8.643,8.773,8.773,0,0,1-8.9,8.643H8.9A8.773,8.773,0,0,1,0,8.643,8.773,8.773,0,0,1,8.9,0Z" transform="translate(22.1 22.86)" fill="#f4f1ec"/></g><g transform="matrix(1, 0, 0, 1, 389, 359.99)" filter="url(#k)"><path d="M8.9,0h.381a8.773,8.773,0,0,1,8.9,8.643,8.773,8.773,0,0,1-8.9,8.643H8.9A8.773,8.773,0,0,1,0,8.643,8.773,8.773,0,0,1,8.9,0Z" transform="translate(22.1 22.86)" fill="#f4f1ec"/></g><g transform="translate(410.925 382.702)"><ellipse cx="8.694" cy="8.502" rx="8.694" ry="8.502" transform="translate(0.188 0.205)" fill="#ff5029"/><path d="M9.215,0A9.038,9.038,0,0,0,0,8.851,9.038,9.038,0,0,0,9.215,17.7,9.038,9.038,0,0,0,18.43,8.851,9.038,9.038,0,0,0,9.215,0Zm-.14,1.758A1.17,1.17,0,0,1,10.27,2.9a1.193,1.193,0,0,1-2.385,0A1.169,1.169,0,0,1,9.075,1.758Zm5.164,3.7-3.545.43V9.293L12.413,14.8a.64.64,0,0,1-.485.782.663.663,0,0,1-.814-.451l-1.76-5.013H8.812L7.194,15.234a.674.674,0,0,1-.87.357.66.66,0,0,1-.418-.839l1.487-5.4V5.884L4.126,5.458a.576.576,0,0,1-.536-.631.61.61,0,0,1,.665-.539l3.968.328h1.74L14.19,4.28a.588.588,0,1,1,.05,1.174Z" fill="#f4f1ec"/></g></g></svg>