<svg xmlns="http://www.w3.org/2000/svg" xmlns:xlink="http://www.w3.org/1999/xlink" width="66" height="66" viewBox="0 0 66 66"><defs><filter id="a" x="0" y="0" width="34.599" height="34.644" filterUnits="userSpaceOnUse"><feOffset dx="2" dy="2" input="SourceAlpha"/><feGaussianBlur stdDeviation="1" result="b"/><feFlood flood-opacity="0.102"/><feComposite operator="in" in2="b"/><feComposite in="SourceGraphic"/></filter><filter id="c" x="0" y="31.356" width="34.599" height="34.644" filterUnits="userSpaceOnUse"><feOffset dx="2" dy="2" input="SourceAlpha"/><feGaussianBlur stdDeviation="1" result="d"/><feFlood flood-opacity="0.102"/><feComposite operator="in" in2="d"/><feComposite in="SourceGraphic"/></filter><filter id="e" x="31.401" y="0" width="34.599" height="34.644" filterUnits="userSpaceOnUse"><feOffset dx="2" dy="2" input="SourceAlpha"/><feGaussianBlur stdDeviation="1" result="f"/><feFlood flood-opacity="0.102"/><feComposite operator="in" in2="f"/><feComposite in="SourceGraphic"/></filter><filter id="g" x="31.401" y="31.356" width="34.599" height="34.644" filterUnits="userSpaceOnUse"><feOffset dx="2" dy="2" input="SourceAlpha"/><feGaussianBlur stdDeviation="1" result="h"/><feFlood flood-opacity="0.102"/><feComposite operator="in" in2="h"/><feComposite in="SourceGraphic"/></filter><filter id="i" x="7.483" y="8.221" width="45.075" height="44.177" filterUnits="userSpaceOnUse"><feOffset dx="-1" dy="-1" input="SourceAlpha"/><feGaussianBlur stdDeviation="4.5" result="j"/><feFlood flood-color="#ff8970"/><feComposite operator="in" in2="j"/><feComposite in="SourceGraphic"/></filter><filter id="k" x="20.983" y="21.721" width="24.075" height="23.177" filterUnits="userSpaceOnUse"><feOffset dx="2" dy="2" input="SourceAlpha"/><feGaussianBlur stdDeviation="1" result="l"/><feFlood flood-opacity="0.188"/><feComposite operator="in" in2="l"/><feComposite in="SourceGraphic"/></filter></defs><g transform="translate(-389 -359.994)"><g transform="translate(390 360.994)"><g transform="matrix(1, 0, 0, 1, -1, -1)" filter="url(#a)"><path d="M1.494,0H27.05C28.209.152,28.6,1.01,28.6,2.257v24.13c0,1.246-1.372,2.055-1.718,2.257H1.89C.335,28.564,0,27.634,0,26.387V2.257C0,1.01,1.494,0,1.494,0Z" transform="translate(1 1)" fill="#fff"/></g><path d="M1.652,0H26.946A1.629,1.629,0,0,1,28.6,1.605V27.039a1.629,1.629,0,0,1-1.652,1.605H1.652A1.629,1.629,0,0,1,0,27.039V1.605A1.629,1.629,0,0,1,1.652,0Z" transform="translate(0 0)" fill="#ff5029"/><path d="M9.915-87.957V-98.614a.772.772,0,0,1,.247-.574.839.839,0,0,1,.608-.24h1.639a.8.8,0,0,1,.586.24.778.778,0,0,1,.242.574v3.852H19.3v-3.852a.772.772,0,0,1,.247-.574.818.818,0,0,1,.59-.24h1.639a.824.824,0,0,1,.6.24.778.778,0,0,1,.242.574v10.658a.752.752,0,0,1-.251.569.841.841,0,0,1-.595.235H20.138a.842.842,0,0,1-.59-.227.731.731,0,0,1-.247-.561v-4.4H13.238v4.4a.737.737,0,0,1-.242.561.827.827,0,0,1-.586.227H10.77a.856.856,0,0,1-.6-.235A.746.746,0,0,1,9.915-87.957Z" transform="translate(-1.918 107.775)" fill="#f4f1ec"/></g><g transform="translate(390 392.35)"><g transform="matrix(1, 0, 0, 1, -1, -32.36)" filter="url(#c)"><path d="M1.494,0H27.05C28.209.152,28.6,1.01,28.6,2.257v24.13c0,1.246-1.372,2.055-1.718,2.257H1.89C.335,28.564,0,27.634,0,26.387V2.257C0,1.01,1.494,0,1.494,0Z" transform="translate(1 32.36)" fill="#fff"/></g><path d="M1.652,0H26.946A1.629,1.629,0,0,1,28.6,1.605V27.039a1.629,1.629,0,0,1-1.652,1.605H1.652A1.629,1.629,0,0,1,0,27.039V1.605A1.629,1.629,0,0,1,1.652,0Z" transform="translate(0 0)" fill="#ff5029"/><path d="M9.915-87.974V-98.6a.806.806,0,0,1,.238-.591.788.788,0,0,1,.582-.24h3.587a1.046,1.046,0,0,1,.652.24,1.167,1.167,0,0,1,.414.574l2.6,7.311,2.6-7.311A1.167,1.167,0,0,1,21-99.188a1.046,1.046,0,0,1,.652-.24h3.587a.774.774,0,0,1,.577.24.814.814,0,0,1,.234.591v10.624a.784.784,0,0,1-.242.586.81.81,0,0,1-.586.235H23.637a.81.81,0,0,1-.586-.235.784.784,0,0,1-.242-.586v-8.364L19.7-87.922a1.224,1.224,0,0,1-.432.544,1.083,1.083,0,0,1-.652.227h-1.26a1.064,1.064,0,0,1-.648-.227,1.3,1.3,0,0,1-.436-.544l-3.1-8.415v8.364a.784.784,0,0,1-.242.586.81.81,0,0,1-.586.235H10.752a.825.825,0,0,1-.59-.235A.777.777,0,0,1,9.915-87.974Z" transform="translate(-3.698 107.771)" fill="#f4f1ec"/></g><g transform="translate(421.401 360.994)"><g transform="matrix(1, 0, 0, 1, -32.4, -1)" filter="url(#e)"><path d="M1.494,0H27.05C28.209.152,28.6,1.01,28.6,2.257v24.13c0,1.246-1.372,2.055-1.718,2.257H1.89C.335,28.564,0,27.634,0,26.387V2.257C0,1.01,1.494,0,1.494,0Z" transform="translate(32.4 1)" fill="#fff"/></g><path d="M1.652,0H26.946A1.629,1.629,0,0,1,28.6,1.605V27.039a1.629,1.629,0,0,1-1.652,1.605H1.652A1.629,1.629,0,0,1,0,27.039V1.605A1.629,1.629,0,0,1,1.652,0Z" transform="translate(0 0)" fill="#ff5029"/><path d="M1.387-97.81v-.8a.778.778,0,0,1,.238-.582.825.825,0,0,1,.6-.231H13.408a.825.825,0,0,1,.6.231.778.778,0,0,1,.238.582v.8a.764.764,0,0,1-.238.578.834.834,0,0,1-.6.227H9.477v9.066a.737.737,0,0,1-.242.561.827.827,0,0,1-.586.227H6.983a.827.827,0,0,1-.586-.227.737.737,0,0,1-.242-.561v-9.066H2.224a.834.834,0,0,1-.6-.227A.764.764,0,0,1,1.387-97.81Z" transform="translate(6.584 107.775)" fill="#f4f1ec"/></g><g transform="translate(421.401 392.35)"><g transform="matrix(1, 0, 0, 1, -32.4, -32.36)" filter="url(#g)"><path d="M1.494,0H27.05C28.209.152,28.6,1.01,28.6,2.257v24.13c0,1.246-1.372,2.055-1.718,2.257H1.89C.335,28.564,0,27.634,0,26.387V2.257C0,1.01,1.494,0,1.494,0Z" transform="translate(32.4 32.36)" fill="#fff"/></g><path d="M1.652,0H26.946A1.629,1.629,0,0,1,28.6,1.605V27.039a1.629,1.629,0,0,1-1.652,1.605H1.652A1.629,1.629,0,0,1,0,27.039V1.605A1.629,1.629,0,0,1,1.652,0Z" transform="translate(0 0)" fill="#ff5029"/><path d="M9.915-87.939V-98.6a.791.791,0,0,1,.247-.591.818.818,0,0,1,.59-.24h1.657a.8.8,0,0,1,.586.24.8.8,0,0,1,.242.591v9.023h7.676a.8.8,0,0,1,.586.24.778.778,0,0,1,.242.574v.8a.765.765,0,0,1-.242.569.81.81,0,0,1-.586.235H10.752a.842.842,0,0,1-.59-.227A.731.731,0,0,1,9.915-87.939Z" transform="translate(-0.861 107.771)" fill="#f4f1ec"/></g><g transform="matrix(1, 0, 0, 1, 389, 359.99)" filter="url(#i)"><path d="M8.848,0h.379a8.721,8.721,0,0,1,8.848,8.588,8.721,8.721,0,0,1-8.848,8.588H8.848A8.721,8.721,0,0,1,0,8.588,8.721,8.721,0,0,1,8.848,0Z" transform="translate(21.98 22.72)" fill="#f4f1ec"/></g><g transform="matrix(1, 0, 0, 1, 389, 359.99)" filter="url(#k)"><path d="M8.848,0h.379a8.721,8.721,0,0,1,8.848,8.588,8.721,8.721,0,0,1-8.848,8.588H8.848A8.721,8.721,0,0,1,0,8.588,8.721,8.721,0,0,1,8.848,0Z" transform="translate(21.98 22.72)" fill="#f4f1ec"/></g><g transform="translate(410.809 382.565)"><ellipse cx="8.646" cy="8.449" rx="8.646" ry="8.449" transform="translate(0.187 0.203)" fill="#ff5029"/><path d="M9.164,0A8.985,8.985,0,0,0,0,8.8a8.985,8.985,0,0,0,9.164,8.8,8.985,8.985,0,0,0,9.164-8.8A8.985,8.985,0,0,0,9.164,0ZM9.025,1.747a1.163,1.163,0,0,1,1.188,1.136,1.187,1.187,0,0,1-2.372,0A1.162,1.162,0,0,1,9.025,1.747ZM14.161,5.42l-3.526.428V9.235l1.708,5.472a.636.636,0,0,1-.482.777.659.659,0,0,1-.81-.448L9.3,10.054H8.764l-1.61,5.085a.67.67,0,0,1-.865.355.655.655,0,0,1-.416-.833L7.351,9.29V5.847L4.1,5.423A.572.572,0,0,1,3.571,4.8a.606.606,0,0,1,.661-.536l3.946.326H9.909l4.2-.332a.584.584,0,1,1,.05,1.166Z" fill="#f4f1ec"/></g></g></svg>