<svg xmlns="http://www.w3.org/2000/svg" width="60" height="60" viewBox="0 0 60 60"><g transform="translate(-1182 -311)"><rect width="22" height="23" transform="translate(1185 314)" fill="#f4f1ec"/><rect width="22" height="23" transform="translate(1215 314)" fill="#f4f1ec"/><rect width="22" height="23" transform="translate(1216 345)" fill="#f4f1ec"/><rect width="22" height="23" transform="translate(1185 345)" fill="#f4f1ec"/><g transform="translate(1182 311)"><path d="M27.068,28.872H1.8a1.807,1.807,0,0,1-1.8-1.8V1.8A1.807,1.807,0,0,1,1.8,0H27.068a1.807,1.807,0,0,1,1.8,1.8V27.068A1.807,1.807,0,0,1,27.068,28.872Zm-10.233-12.6v6.474h5.208V6.135H16.834v5.982h-4.95V6.135H6.677V22.744h5.208V16.269h4.95Z" fill="#ff6f4b"/><path d="M27.068,28.872H1.8a1.807,1.807,0,0,1-1.8-1.8V1.8A1.807,1.807,0,0,1,1.8,0H27.068a1.807,1.807,0,0,1,1.8,1.8V27.068A1.807,1.807,0,0,1,27.068,28.872ZM19.29,14.464h0v8.28h5.184V6.135H18.117l-3.566,9.97-3.659-9.97H4.511V22.744H9.719V14.463l2.557,8.281h4.457Z" transform="translate(0 31.128)" fill="#ff6f4b"/><path d="M27.068,28.872H1.8a1.807,1.807,0,0,1-1.8-1.8V1.8A1.807,1.807,0,0,1,1.8,0H27.068a1.807,1.807,0,0,1,1.8,1.8V27.068A1.807,1.807,0,0,1,27.068,28.872ZM7.4,6.135v4.129h4.363v12.48H16.97V10.264h4.41V6.135Z" transform="translate(31.128)" fill="#ff6f4b"/><path d="M27.068,28.872H1.8a1.807,1.807,0,0,1-1.8-1.8V1.8A1.807,1.807,0,0,1,1.8,0H27.068a1.807,1.807,0,0,1,1.8,1.8V27.068A1.807,1.807,0,0,1,27.068,28.872ZM9.383,6.135V22.744H19.611V18.8h-5.02V6.135Z" transform="translate(31.128 31.128)" fill="#ff6f4b"/></g><g transform="translate(1203.5 333)"><path d="M7.8,0a7.711,7.711,0,0,1,7.8,7.624,7.711,7.711,0,0,1-7.8,7.624A7.711,7.711,0,0,1,0,7.624,7.711,7.711,0,0,1,7.8,0Z" transform="translate(0.169 0.184)" fill="#ff6f4b"/><path d="M8.263,0A8.1,8.1,0,0,0,0,7.936a8.1,8.1,0,0,0,8.263,7.936,8.1,8.1,0,0,0,8.263-7.936A8.1,8.1,0,0,0,8.263,0ZM8.138,1.576A1.049,1.049,0,0,1,9.209,2.6a1.07,1.07,0,0,1-2.138,0A1.048,1.048,0,0,1,8.138,1.576Zm4.631,3.315-3.179.386V8.333l1.54,4.938a.574.574,0,0,1-.435.7.594.594,0,0,1-.73-.4l-1.578-4.5H7.9L6.45,13.661a.6.6,0,0,1-.78.32.591.591,0,0,1-.375-.752L6.629,8.383V5.276L3.7,4.894a.516.516,0,0,1-.48-.567.547.547,0,0,1,.6-.483l3.558.294H8.934l3.789-.3a.527.527,0,1,1,.044,1.053Z" transform="translate(0)" fill="#f4f1ec"/></g></g></svg>