<svg xmlns="http://www.w3.org/2000/svg" width="59.83" height="60"><g fill="#ff5029"><path d="M27.118 28.826H1.663a1.678 1.678 0 01-1.176-.473A1.581 1.581 0 010 27.211V1.615A1.582 1.582 0 01.487.473 1.678 1.678 0 011.663 0h25.455a1.676 1.676 0 011.176.473 1.582 1.582 0 01.487 1.142v25.6a1.581 1.581 0 01-.487 1.142 1.677 1.677 0 01-1.176.469zM11.391 15.534h6.1v4.428a.739.739 0 00.248.565.851.851 0 00.594.228h1.65a.849.849 0 00.6-.237.759.759 0 00.253-.573V9.219a.785.785 0 00-.244-.577.83.83 0 00-.607-.241h-1.65a.826.826 0 00-.594.241.778.778 0 00-.248.577V13.1h-6.1V9.219a.785.785 0 00-.244-.577.81.81 0 00-.59-.241H8.908a.847.847 0 00-.612.241.777.777 0 00-.248.577v10.726a.753.753 0 00.257.573.864.864 0 00.6.237h1.65a.835.835 0 00.59-.228.745.745 0 00.244-.565v-4.428zM27.118 60H1.663a1.678 1.678 0 01-1.176-.473A1.581 1.581 0 010 58.385V32.789a1.582 1.582 0 01.487-1.142 1.678 1.678 0 011.176-.473h25.455a1.676 1.676 0 011.176.473 1.582 1.582 0 01.487 1.142v25.6a1.581 1.581 0 01-.487 1.142 1.677 1.677 0 01-1.176.469zm-7.886-17.319v8.416a.792.792 0 00.244.59.818.818 0 00.589.237h1.6a.819.819 0 00.59-.237.792.792 0 00.244-.59V40.406a.822.822 0 00-.235-.595.781.781 0 00-.584-.237h-3.609a1.06 1.06 0 00-.657.241 1.176 1.176 0 00-.414.573l-2.617 7.358-2.618-7.358a1.184 1.184 0 00-.417-.577 1.06 1.06 0 00-.656-.241h-3.61a.8.8 0 00-.585.241.815.815 0 00-.24.595v10.691a.786.786 0 00.249.59.834.834 0 00.594.237h1.6a.817.817 0 00.59-.237.793.793 0 00.244-.59V42.68l3.122 8.468a1.31 1.31 0 00.439.547 1.074 1.074 0 00.651.228h1.269a1.1 1.1 0 00.656-.228 1.228 1.228 0 00.434-.547zM58.168 28.826H32.713a1.678 1.678 0 01-1.176-.473 1.581 1.581 0 01-.487-1.142V1.615a1.582 1.582 0 01.487-1.142A1.678 1.678 0 0132.713 0h25.455a1.676 1.676 0 011.176.473 1.582 1.582 0 01.487 1.142v25.6a1.581 1.581 0 01-.487 1.142 1.677 1.677 0 01-1.176.469zM39.913 8.4a.835.835 0 00-.6.232.788.788 0 00-.239.586v.81a.773.773 0 00.239.581.842.842 0 00.6.228h3.957v9.123a.746.746 0 00.244.565.836.836 0 00.59.228h1.676a.835.835 0 00.59-.228.744.744 0 00.243-.565v-9.121h3.956a.841.841 0 00.6-.228.771.771 0 00.24-.581v-.81a.786.786 0 00-.24-.586.833.833 0 00-.6-.232zM58.168 60H32.713a1.678 1.678 0 01-1.176-.473 1.581 1.581 0 01-.487-1.142V32.789a1.586 1.586 0 01.432-1.085 1.677 1.677 0 011.06-.522l.008-.008H58.319a1.675 1.675 0 011.073.516 1.585 1.585 0 01.438 1.093v25.6a1.581 1.581 0 01-.487 1.142 1.677 1.677 0 01-1.175.475zM41.005 39.574a.828.828 0 00-.595.241.8.8 0 00-.248.595v10.721a.737.737 0 00.248.564.852.852 0 00.595.228H51.23a.821.821 0 00.59-.237.774.774 0 00.243-.573v-.809a.786.786 0 00-.243-.577.813.813 0 00-.59-.242h-7.724v-9.079a.829.829 0 00-.834-.836z"/></g></svg>